<svg width="42" height="42" viewBox="0 0 42 42" fill="none" xmlns="http://www.w3.org/2000/svg">
<g filter="url(#filter0_iiiii_1003_15359)">
<path d="M7.38175 16.7914L11.7755 15.9285C13.2321 15.6425 14.5002 14.7623 15.2696 13.5032L18.7394 7.82509C19.7681 6.14164 22.2319 6.14163 23.2606 7.82509L26.7304 13.5032C27.4998 14.7623 28.7679 15.6425 30.2245 15.9285L34.6183 16.7914C36.6968 17.1995 37.4701 19.7449 35.9646 21.2231L32.2768 24.8441C31.0122 26.0857 30.4629 27.8749 30.8152 29.6044L31.4965 32.9492C31.9313 35.084 29.7015 36.7823 27.7327 35.8157L23.346 33.6621C21.8677 32.9364 20.1323 32.9364 18.654 33.6621L14.2673 35.8157C12.2985 36.7823 10.0687 35.084 10.5035 32.9492L11.1848 29.6044C11.5371 27.8749 10.9878 26.0857 9.7232 24.8441L6.03538 21.2231C4.52991 19.7449 5.3032 17.1995 7.38175 16.7914Z" fill="url(#paint0_linear_1003_15359)"/>
</g>
<defs>
<filter id="filter0_iiiii_1003_15359" x="1.25" y="2.5625" width="37.5" height="35.5312" filterUnits="userSpaceOnUse" color-interpolation-filters="sRGB">
<feFlood flood-opacity="0" result="BackgroundImageFix"/>
<feBlend mode="normal" in="SourceGraphic" in2="BackgroundImageFix" result="shape"/>
<feColorMatrix in="SourceAlpha" type="matrix" values="0 0 0 0 0 0 0 0 0 0 0 0 0 0 0 0 0 0 127 0" result="hardAlpha"/>
<feOffset dx="2" dy="2"/>
<feGaussianBlur stdDeviation="3"/>
<feComposite in2="hardAlpha" operator="arithmetic" k2="-1" k3="1"/>
<feColorMatrix type="matrix" values="0 0 0 0 1 0 0 0 0 0.980833 0 0 0 0 0.808333 0 0 0 0.4 0"/>
<feBlend mode="normal" in2="shape" result="effect1_innerShadow_1003_15359"/>
<feColorMatrix in="SourceAlpha" type="matrix" values="0 0 0 0 0 0 0 0 0 0 0 0 0 0 0 0 0 0 127 0" result="hardAlpha"/>
<feOffset dx="-4" dy="-4"/>
<feGaussianBlur stdDeviation="3"/>
<feComposite in2="hardAlpha" operator="arithmetic" k2="-1" k3="1"/>
<feColorMatrix type="matrix" values="0 0 0 0 0.558333 0 0 0 0 0.504128 0 0 0 0 0.0162847 0 0 0 0.2 0"/>
<feBlend mode="normal" in2="effect1_innerShadow_1003_15359" result="effect2_innerShadow_1003_15359"/>
<feColorMatrix in="SourceAlpha" type="matrix" values="0 0 0 0 0 0 0 0 0 0 0 0 0 0 0 0 0 0 127 0" result="hardAlpha"/>
<feOffset dx="1" dy="1"/>
<feGaussianBlur stdDeviation="1"/>
<feComposite in2="hardAlpha" operator="arithmetic" k2="-1" k3="1"/>
<feColorMatrix type="matrix" values="0 0 0 0 1 0 0 0 0 0.992917 0 0 0 0 0.929167 0 0 0 0.4 0"/>
<feBlend mode="normal" in2="effect2_innerShadow_1003_15359" result="effect3_innerShadow_1003_15359"/>
<feColorMatrix in="SourceAlpha" type="matrix" values="0 0 0 0 0 0 0 0 0 0 0 0 0 0 0 0 0 0 127 0" result="hardAlpha"/>
<feOffset dx="-2" dy="-2"/>
<feGaussianBlur stdDeviation="2"/>
<feComposite in2="hardAlpha" operator="arithmetic" k2="-1" k3="1"/>
<feColorMatrix type="matrix" values="0 0 0 0 0.304167 0 0 0 0 0.23725 0 0 0 0 0 0 0 0 0.2 0"/>
<feBlend mode="normal" in2="effect3_innerShadow_1003_15359" result="effect4_innerShadow_1003_15359"/>
<feColorMatrix in="SourceAlpha" type="matrix" values="0 0 0 0 0 0 0 0 0 0 0 0 0 0 0 0 0 0 127 0" result="hardAlpha"/>
<feOffset dx="-1" dy="-1"/>
<feGaussianBlur stdDeviation="0.5"/>
<feComposite in2="hardAlpha" operator="arithmetic" k2="-1" k3="1"/>
<feColorMatrix type="matrix" values="0 0 0 0 1 0 0 0 0 0.854667 0 0 0 0 0.0916666 0 0 0 0.2 0"/>
<feBlend mode="normal" in2="effect4_innerShadow_1003_15359" result="effect5_innerShadow_1003_15359"/>
</filter>
<linearGradient id="paint0_linear_1003_15359" x1="18.7031" y1="6.5625" x2="18.7031" y2="36.0938" gradientUnits="userSpaceOnUse">
<stop stop-color="#FFE926"/>
<stop offset="1" stop-color="#FDAB0C"/>
</linearGradient>
</defs>
</svg>
