<svg width="42" height="42" viewBox="0 0 42 42" fill="none" xmlns="http://www.w3.org/2000/svg">
<g filter="url(#filter0_iiiii_1003_19028)">
<path d="M17.6423 6.51734C19.0486 3.78767 22.9514 3.78767 24.3577 6.51734C25.2028 8.15757 27.1092 8.94722 28.8665 8.38494C31.7911 7.44919 34.5508 10.2089 33.6151 13.1335C33.0528 14.8908 33.8424 16.7972 35.4827 17.6423C38.2123 19.0486 38.2123 22.9514 35.4827 24.3577C33.8424 25.2028 33.0528 27.1092 33.6151 28.8665C34.5508 31.7911 31.7911 34.5508 28.8665 33.6151C27.1092 33.0528 25.2028 33.8424 24.3577 35.4827C22.9514 38.2123 19.0486 38.2123 17.6423 35.4827C16.7972 33.8424 14.8908 33.0528 13.1335 33.6151C10.2089 34.5508 7.44919 31.7911 8.38494 28.8665C8.94722 27.1092 8.15757 25.2028 6.51734 24.3577C3.78767 22.9514 3.78767 19.0486 6.51734 17.6423C8.15757 16.7972 8.94722 14.8908 8.38494 13.1335C7.44919 10.2089 10.2089 7.44919 13.1335 8.38494C14.8908 8.94722 16.7972 8.15757 17.6423 6.51734Z" fill="url(#paint0_linear_1003_19028)"/>
</g>
<g filter="url(#filter1_diiiii_1003_19028)">
<path d="M23.7527 13.8674L21.9918 12.8619C21.3772 12.5109 20.6229 12.5109 20.0083 12.8619L18.2474 13.8674C17.3087 14.4035 17.3252 15.7626 18.2767 16.2756C18.6983 16.503 19.2078 16.495 19.622 16.2544L20.4979 15.7458C20.8084 15.5655 21.1917 15.5655 21.5023 15.7458L22.378 16.2544C22.7923 16.495 23.3018 16.503 23.7234 16.2756C24.6749 15.7626 24.6914 14.4035 23.7527 13.8674Z" fill="black"/>
<path d="M25.381 19.8862L21.9918 17.9549C21.3772 17.6046 20.6232 17.6051 20.0091 17.9562L16.6151 19.8964C15.6746 20.434 15.6915 21.796 16.645 22.3102C17.0645 22.5364 17.571 22.5302 17.9849 22.2939L20.5056 20.8545C20.8121 20.6794 21.1883 20.6789 21.4952 20.8533L24.0165 22.2849C24.4297 22.5195 24.9345 22.5251 25.3528 22.2995C26.3065 21.7852 26.3224 20.4227 25.381 19.8862Z" fill="black"/>
<path d="M21.4737 25.8735L25.4681 28.0217C25.8768 28.2415 26.3685 28.2415 26.7772 28.0219C27.747 27.5007 27.7479 26.1101 26.7788 25.5876L21.9492 22.9837C21.3567 22.6643 20.6434 22.6643 20.0509 22.9837L15.2212 25.5876C14.2521 26.1101 14.253 27.5007 15.2228 28.0219C15.6316 28.2415 16.1232 28.2415 16.5319 28.0217L20.5264 25.8735C20.8222 25.7144 21.178 25.7145 21.4737 25.8735Z" fill="black"/>
</g>
<defs>
<filter id="filter0_iiiii_1003_19028" x="-4.67264" y="-4.67276" width="46.7739" height="46.7741" filterUnits="userSpaceOnUse" color-interpolation-filters="sRGB">
<feFlood flood-opacity="0" result="BackgroundImageFix"/>
<feBlend mode="normal" in="SourceGraphic" in2="BackgroundImageFix" result="shape"/>
<feColorMatrix in="SourceAlpha" type="matrix" values="0 0 0 0 0 0 0 0 0 0 0 0 0 0 0 0 0 0 127 0" result="hardAlpha"/>
<feOffset dx="4.57143" dy="4.57143"/>
<feGaussianBlur stdDeviation="6.85714"/>
<feComposite in2="hardAlpha" operator="arithmetic" k2="-1" k3="1"/>
<feColorMatrix type="matrix" values="0 0 0 0 0.938667 0 0 0 0 1 0 0 0 0 0.808333 0 0 0 0.4 0"/>
<feBlend mode="normal" in2="shape" result="effect1_innerShadow_1003_19028"/>
<feColorMatrix in="SourceAlpha" type="matrix" values="0 0 0 0 0 0 0 0 0 0 0 0 0 0 0 0 0 0 127 0" result="hardAlpha"/>
<feOffset dx="-9.14285" dy="-9.14285"/>
<feGaussianBlur stdDeviation="6.85714"/>
<feComposite in2="hardAlpha" operator="arithmetic" k2="-1" k3="1"/>
<feColorMatrix type="matrix" values="0 0 0 0 0 0 0 0 0 0.583333 0 0 0 0 0.163333 0 0 0 0.2 0"/>
<feBlend mode="normal" in2="effect1_innerShadow_1003_19028" result="effect2_innerShadow_1003_19028"/>
<feColorMatrix in="SourceAlpha" type="matrix" values="0 0 0 0 0 0 0 0 0 0 0 0 0 0 0 0 0 0 127 0" result="hardAlpha"/>
<feOffset dx="2.28571" dy="2.28571"/>
<feGaussianBlur stdDeviation="2.28571"/>
<feComposite in2="hardAlpha" operator="arithmetic" k2="-1" k3="1"/>
<feColorMatrix type="matrix" values="0 0 0 0 0.873417 0 0 0 0 1 0 0 0 0 0.795833 0 0 0 0.4 0"/>
<feBlend mode="normal" in2="effect2_innerShadow_1003_19028" result="effect3_innerShadow_1003_19028"/>
<feColorMatrix in="SourceAlpha" type="matrix" values="0 0 0 0 0 0 0 0 0 0 0 0 0 0 0 0 0 0 127 0" result="hardAlpha"/>
<feOffset dx="-4.57143" dy="-4.57143"/>
<feGaussianBlur stdDeviation="4.57143"/>
<feComposite in2="hardAlpha" operator="arithmetic" k2="-1" k3="1"/>
<feColorMatrix type="matrix" values="0 0 0 0 0 0 0 0 0 0.304167 0 0 0 0 0.231167 0 0 0 0.2 0"/>
<feBlend mode="normal" in2="effect3_innerShadow_1003_19028" result="effect4_innerShadow_1003_19028"/>
<feColorMatrix in="SourceAlpha" type="matrix" values="0 0 0 0 0 0 0 0 0 0 0 0 0 0 0 0 0 0 127 0" result="hardAlpha"/>
<feOffset dx="-2.28571" dy="-2.28571"/>
<feGaussianBlur stdDeviation="1.14286"/>
<feComposite in2="hardAlpha" operator="arithmetic" k2="-1" k3="1"/>
<feColorMatrix type="matrix" values="0 0 0 0 0.105882 0 0 0 0 0.984314 0 0 0 0 0.457255 0 0 0 0.2 0"/>
<feBlend mode="normal" in2="effect4_innerShadow_1003_19028" result="effect5_innerShadow_1003_19028"/>
</filter>
<filter id="filter1_diiiii_1003_19028" x="10.2688" y="8.37235" width="21.4623" height="26.1537" filterUnits="userSpaceOnUse" color-interpolation-filters="sRGB">
<feFlood flood-opacity="0" result="BackgroundImageFix"/>
<feColorMatrix in="SourceAlpha" type="matrix" values="0 0 0 0 0 0 0 0 0 0 0 0 0 0 0 0 0 0 127 0" result="hardAlpha"/>
<feOffset dy="2.11314"/>
<feGaussianBlur stdDeviation="2.11314"/>
<feComposite in2="hardAlpha" operator="out"/>
<feColorMatrix type="matrix" values="0 0 0 0 0.0336806 0 0 0 0 0.204104 0 0 0 0 0.404167 0 0 0 0.39 0"/>
<feBlend mode="normal" in2="BackgroundImageFix" result="effect1_dropShadow_1003_19028"/>
<feBlend mode="normal" in="SourceGraphic" in2="effect1_dropShadow_1003_19028" result="shape"/>
<feColorMatrix in="SourceAlpha" type="matrix" values="0 0 0 0 0 0 0 0 0 0 0 0 0 0 0 0 0 0 127 0" result="hardAlpha"/>
<feOffset dx="2.11314" dy="2.11314"/>
<feGaussianBlur stdDeviation="3.16971"/>
<feComposite in2="hardAlpha" operator="arithmetic" k2="-1" k3="1"/>
<feColorMatrix type="matrix" values="0 0 0 0 0.812167 0 0 0 0 1 0 0 0 0 0.808333 0 0 0 0.4 0"/>
<feBlend mode="normal" in2="shape" result="effect2_innerShadow_1003_19028"/>
<feColorMatrix in="SourceAlpha" type="matrix" values="0 0 0 0 0 0 0 0 0 0 0 0 0 0 0 0 0 0 127 0" result="hardAlpha"/>
<feOffset dx="-4.22628" dy="-4.22628"/>
<feGaussianBlur stdDeviation="3.16971"/>
<feComposite in2="hardAlpha" operator="arithmetic" k2="-1" k3="1"/>
<feColorMatrix type="matrix" values="0 0 0 0 0.0816666 0 0 0 0 0 0 0 0 0 0.583333 0 0 0 0.2 0"/>
<feBlend mode="normal" in2="effect2_innerShadow_1003_19028" result="effect3_innerShadow_1003_19028"/>
<feColorMatrix in="SourceAlpha" type="matrix" values="0 0 0 0 0 0 0 0 0 0 0 0 0 0 0 0 0 0 127 0" result="hardAlpha"/>
<feOffset dx="1.05657" dy="1.05657"/>
<feGaussianBlur stdDeviation="1.05657"/>
<feComposite in2="hardAlpha" operator="arithmetic" k2="-1" k3="1"/>
<feColorMatrix type="matrix" values="0 0 0 0 0.864333 0 0 0 0 1 0 0 0 0 0.816667 0 0 0 0.4 0"/>
<feBlend mode="normal" in2="effect3_innerShadow_1003_19028" result="effect4_innerShadow_1003_19028"/>
<feColorMatrix in="SourceAlpha" type="matrix" values="0 0 0 0 0 0 0 0 0 0 0 0 0 0 0 0 0 0 127 0" result="hardAlpha"/>
<feOffset dx="-2.11314" dy="-2.11314"/>
<feGaussianBlur stdDeviation="2.11314"/>
<feComposite in2="hardAlpha" operator="arithmetic" k2="-1" k3="1"/>
<feColorMatrix type="matrix" values="0 0 0 0 0.00608333 0 0 0 0 0 0 0 0 0 0.304167 0 0 0 0.2 0"/>
<feBlend mode="normal" in2="effect4_innerShadow_1003_19028" result="effect5_innerShadow_1003_19028"/>
<feColorMatrix in="SourceAlpha" type="matrix" values="0 0 0 0 0 0 0 0 0 0 0 0 0 0 0 0 0 0 127 0" result="hardAlpha"/>
<feOffset dx="-1.05657" dy="-1.05657"/>
<feGaussianBlur stdDeviation="0.528285"/>
<feComposite in2="hardAlpha" operator="arithmetic" k2="-1" k3="1"/>
<feColorMatrix type="matrix" values="0 0 0 0 0 0 0 0 0 0 0 0 0 0 0 0 0 0 0.2 0"/>
<feBlend mode="normal" in2="effect5_innerShadow_1003_19028" result="effect6_innerShadow_1003_19028"/>
</filter>
<linearGradient id="paint0_linear_1003_19028" x1="5.58709" y1="7.49223" x2="34.695" y2="36.6001" gradientUnits="userSpaceOnUse">
<stop stop-color="#BCEB00"/>
<stop offset="1" stop-color="#00EAEA"/>
</linearGradient>
</defs>
</svg>
