<svg width="125" height="42" viewBox="0 0 125 42" fill="none" xmlns="http://www.w3.org/2000/svg">
<mask id="mask0_779_21865" style="mask-type:alpha" maskUnits="userSpaceOnUse" x="0" y="0" width="42" height="42">
<path fill-rule="evenodd" clip-rule="evenodd" d="M21 0C9.40202 0 0 9.40202 0 21C0 32.598 9.40202 42 21 42C32.598 42 42 32.598 42 21C42 9.40202 32.598 0 21 0ZM13.1366 9.23104C15.4642 7.6758 18.2007 6.8457 21.0001 6.8457C24.7539 6.8457 28.3539 8.3369 31.0083 10.9913C33.6627 13.6456 35.1539 17.2457 35.1539 20.9995C35.1539 23.7989 34.3238 26.5354 32.7685 28.863C31.2133 31.1906 29.0027 33.0047 26.4165 34.076C23.8302 35.1473 20.9843 35.4276 18.2387 34.8814C15.4931 34.3353 12.9712 32.9873 10.9918 31.0078C9.01231 29.0284 7.66429 26.5064 7.11816 23.7608C6.57203 21.0152 6.85232 18.1694 7.92359 15.5831C8.99486 12.9968 10.809 10.7863 13.1366 9.23104ZM25.7111 16.4435L21.0001 14.0053L16.289 16.4435L19.0371 17.7865L21.0001 16.7534L22.963 17.7865L25.7111 16.4435ZM27.2814 21.6814L21.0001 18.4374L14.7186 21.6917L17.4667 23.0348L21.0001 21.2062L24.5333 23.0245L27.2814 21.6814ZM21.0001 25.597L25.9177 27.9938L28.7175 26.6301L21.0001 22.8592L13.2826 26.6301L16.0824 27.9938L21.0001 25.597Z" fill="url(#paint0_linear_779_21865)"/>
</mask>
<g mask="url(#mask0_779_21865)">
<g filter="url(#filter0_f_779_21865)">
<rect x="6" y="6" width="30" height="30" rx="15" fill="url(#paint1_linear_779_21865)"/>
</g>
</g>
<path d="M56.112 18.0407H59.952V14.6807H48.464V18.0407H52.176V26.1527H56.112V18.0407Z" fill="black"/>
<path d="M71.9752 23.1927H67.8632C67.5592 23.5927 67.0632 23.8327 65.8632 23.8327C64.2792 23.8327 63.5112 23.3847 63.2712 22.4567H72.0552V21.5447C72.0552 19.5927 71.1912 18.0727 69.3672 17.2407C68.4712 16.8087 67.3192 16.6007 65.9112 16.6007C62.9992 16.6007 61.1432 17.5607 60.1992 19.1287C59.7512 19.9287 59.5112 20.7607 59.5112 21.7527C59.5112 23.0967 59.8792 24.2487 60.8232 25.1127C61.7672 25.9767 63.2872 26.4567 65.6232 26.4567C69.1592 26.4567 71.1752 25.5127 71.9752 23.1927ZM65.8632 19.2567C67.2552 19.2567 67.9912 19.6247 68.2312 20.5847H63.3352C63.6392 19.7207 64.4232 19.2567 65.8632 19.2567Z" fill="black"/>
<path d="M77.1251 26.1527V22.3287C77.1251 20.7607 77.5251 19.7847 78.8531 19.7847C79.7971 19.7847 80.2291 20.1847 80.3731 20.8727C80.4371 21.2087 80.4851 21.6087 80.4851 22.0567V26.1527H84.2931V22.2807C84.2931 20.7767 84.6771 19.7847 85.9411 19.7847C86.8851 19.7847 87.3171 20.1847 87.4931 20.8887C87.5731 21.2567 87.6211 21.6567 87.6211 22.1207V26.1527H91.4291V20.9687C91.4291 18.2807 90.2611 16.6167 87.5731 16.6167C85.7491 16.6167 84.5171 17.4967 83.9571 18.8887C83.4451 17.4327 82.3571 16.6007 80.4531 16.6007C78.6131 16.6007 77.4451 17.5127 76.8851 18.8567L76.5491 16.8727H73.2851V26.1527H77.1251Z" fill="black"/>
<path d="M100.316 26.3607C102.076 26.3607 103.628 25.5927 104.524 24.1847C104.988 23.4487 105.212 22.6007 105.212 21.5767C105.212 19.4327 104.364 17.9767 102.908 17.2247C102.172 16.8567 101.34 16.6647 100.38 16.6647C98.5082 16.6647 97.1802 17.3847 96.4762 18.6007L96.2042 16.8727H92.9882V29.3847H96.7482V24.6967C97.3562 25.7527 98.4282 26.3607 100.316 26.3607ZM98.9882 23.4487C97.4522 23.4487 96.6842 22.8407 96.6842 21.5927C96.6842 20.2807 97.5002 19.5767 99.0042 19.5767C100.572 19.5767 101.324 20.2487 101.324 21.5927C101.324 22.7927 100.636 23.4487 98.9882 23.4487Z" fill="black"/>
<path d="M106.52 26.1527H110.376V13.9127H106.52V26.1527Z" fill="black"/>
<path d="M124.085 23.1927H119.973C119.669 23.5927 119.173 23.8327 117.973 23.8327C116.389 23.8327 115.621 23.3847 115.381 22.4567H124.165V21.5447C124.165 19.5927 123.301 18.0727 121.477 17.2407C120.581 16.8087 119.429 16.6007 118.021 16.6007C115.109 16.6007 113.253 17.5607 112.309 19.1287C111.861 19.9287 111.621 20.7607 111.621 21.7527C111.621 23.0967 111.989 24.2487 112.933 25.1127C113.877 25.9767 115.397 26.4567 117.733 26.4567C121.269 26.4567 123.285 25.5127 124.085 23.1927ZM117.973 19.2567C119.365 19.2567 120.101 19.6247 120.341 20.5847H115.445C115.749 19.7207 116.533 19.2567 117.973 19.2567Z" fill="black"/>
<defs>
<filter id="filter0_f_779_21865" x="-2" y="-2" width="46" height="46" filterUnits="userSpaceOnUse" color-interpolation-filters="sRGB">
<feFlood flood-opacity="0" result="BackgroundImageFix"/>
<feBlend mode="normal" in="SourceGraphic" in2="BackgroundImageFix" result="shape"/>
<feGaussianBlur stdDeviation="4" result="effect1_foregroundBlur_779_21865"/>
</filter>
<linearGradient id="paint0_linear_779_21865" x1="5.58709" y1="7.49223" x2="34.695" y2="36.6001" gradientUnits="userSpaceOnUse">
<stop stop-color="#BCEB00"/>
<stop offset="1" stop-color="#00EAEA"/>
</linearGradient>
<linearGradient id="paint1_linear_779_21865" x1="9.99078" y1="11.3516" x2="30.7821" y2="32.1429" gradientUnits="userSpaceOnUse">
<stop stop-color="#BCEB00"/>
<stop offset="1" stop-color="#00EAEA"/>
</linearGradient>
</defs>
</svg>
